<svg id="information" xmlns="http://www.w3.org/2000/svg" width="12.963" height="12.962" viewBox="0 0 12.963 12.962">
  <path id="Path_303" data-name="Path 303" d="M6.481,0a6.481,6.481,0,1,0,6.481,6.481A6.489,6.489,0,0,0,6.481,0Zm0,11.784a5.3,5.3,0,1,1,5.3-5.3A5.309,5.309,0,0,1,6.481,11.784Z" fill="#52575d"/>
  <path id="Path_304" data-name="Path 304" d="M145.787,70a.786.786,0,1,0,.785.786A.787.787,0,0,0,145.787,70Z" transform="translate(-139.306 -67.25)" fill="#52575d"/>
  <path id="Path_305" data-name="Path 305" d="M150.589,140a.589.589,0,0,0-.589.589v3.535a.589.589,0,0,0,1.178,0v-3.535A.589.589,0,0,0,150.589,140Z" transform="translate(-144.108 -134.501)" fill="#52575d"/>
</svg>
