<svg id="internet" xmlns="http://www.w3.org/2000/svg" width="17.947" height="17.947" viewBox="0 0 17.947 17.947">
  <path id="Path_299" data-name="Path 299" d="M15.318,2.628a8.973,8.973,0,0,0-12.69,12.69,8.973,8.973,0,0,0,12.69-12.69Zm-.075,11.065a11.189,11.189,0,0,0-1.681-.939,15.077,15.077,0,0,0,.448-3.22H16.8A7.809,7.809,0,0,1,15.244,13.693ZM1.142,9.534H3.936a15.081,15.081,0,0,0,.448,3.22,11.186,11.186,0,0,0-1.681.939A7.809,7.809,0,0,1,1.142,9.534ZM2.7,4.253a11.183,11.183,0,0,0,1.681.939,15.079,15.079,0,0,0-.448,3.22H1.142A7.809,7.809,0,0,1,2.7,4.253Zm9.938-1.493a7.584,7.584,0,0,0-.664-1.042A7.879,7.879,0,0,1,14.5,3.4a10.058,10.058,0,0,1-1.267.708A10.075,10.075,0,0,0,12.641,2.761Zm-.454,1.767a10.088,10.088,0,0,1-3.213.52,10.088,10.088,0,0,1-3.213-.52c.717-2.042,1.9-3.406,3.213-3.406s2.5,1.364,3.213,3.406ZM5.058,8.413A14.059,14.059,0,0,1,5.441,5.6a11.21,11.21,0,0,0,3.532.565A11.21,11.21,0,0,0,12.505,5.6a14.057,14.057,0,0,1,.383,2.808Zm7.83,1.122a14.061,14.061,0,0,1-.383,2.808,11.32,11.32,0,0,0-7.064,0,14.058,14.058,0,0,1-.383-2.808ZM5.306,2.761a10.086,10.086,0,0,0-.592,1.348A10.056,10.056,0,0,1,3.447,3.4,7.877,7.877,0,0,1,5.97,1.719,7.583,7.583,0,0,0,5.306,2.761ZM4.714,13.838a10.083,10.083,0,0,0,.592,1.348,7.584,7.584,0,0,0,.664,1.042,7.878,7.878,0,0,1-2.523-1.682,10.063,10.063,0,0,1,1.267-.707Zm1.046-.418a10.186,10.186,0,0,1,6.426,0c-.717,2.042-1.9,3.406-3.213,3.406S6.478,15.461,5.76,13.419Zm6.88,1.767a10.083,10.083,0,0,0,.592-1.348,10.062,10.062,0,0,1,1.267.707,7.878,7.878,0,0,1-2.523,1.682A7.581,7.581,0,0,0,12.641,15.186Zm1.37-6.773a15.08,15.08,0,0,0-.448-3.22,11.181,11.181,0,0,0,1.681-.939A7.809,7.809,0,0,1,16.8,8.413Z" fill="#fff"/>
</svg>
