<svg xmlns="http://www.w3.org/2000/svg" width="23.692" height="21.618" viewBox="0 0 23.692 21.618">
  <g id="logout_1_" data-name="logout (1)" transform="translate(0 -22.404)">
    <g id="Group_64" data-name="Group 64" transform="translate(19.769 30.731)">
      <g id="Group_63" data-name="Group 63" transform="translate(0 0)">
        <path id="Path_95" data-name="Path 95" d="M430.854,204.276l-2.535-1.787a.7.7,0,0,0-1.094.567v3.574a.694.694,0,0,0,1.094.567l2.535-1.787A.694.694,0,0,0,430.854,204.276Z" transform="translate(-427.225 -202.361)" fill="#d0dbe5"/>
      </g>
    </g>
    <g id="Group_66" data-name="Group 66" transform="translate(0 22.404)">
      <g id="Group_65" data-name="Group 65" transform="translate(0 0)">
        <path id="Path_96" data-name="Path 96" d="M19.919,37.67a.694.694,0,0,0-.948.253,9.421,9.421,0,1,1,0-9.42.694.694,0,0,0,1.2-.7,10.809,10.809,0,1,0,0,10.81A.694.694,0,0,0,19.919,37.67Z" transform="translate(0 -22.404)" fill="#d0dbe5"/>
      </g>
    </g>
    <g id="Group_68" data-name="Group 68" transform="translate(6.904 32.519)">
      <g id="Group_67" data-name="Group 67">
        <path id="Path_97" data-name="Path 97" d="M149.886,241a.694.694,0,0,0,0,1.388h10.783V241Z" transform="translate(-149.192 -241.001)" fill="#d0dbe5"/>
      </g>
    </g>
  </g>
</svg>
