<svg xmlns="http://www.w3.org/2000/svg" width="20.173" height="20.525" viewBox="0 0 20.173 20.525">
  <g id="Group_607" data-name="Group 607" transform="translate(-1493.158 5656.305)">
    <path id="Path_147" data-name="Path 147" d="M1503.353-5650.879a4.427,4.427,0,0,1,4.426-4.427h0a4.427,4.427,0,0,1,4.427,4.427v.947" transform="translate(-4.46 0)" fill="none" stroke="#fefefe" stroke-linecap="round" stroke-linejoin="round" stroke-width="2"/>
    <path id="Path_148" data-name="Path 148" d="M1507.746-5644.863h3.033a1.544,1.544,0,0,1,1.509,1.872l-2.147,9.889a1.766,1.766,0,0,1-1.726,1.391h-10.341a1.766,1.766,0,0,1-1.726-1.391l-2.147-9.889a1.544,1.544,0,0,1,1.509-1.872h8.8" transform="translate(0 -5.069)" fill="none" stroke="#fefefe" stroke-linecap="round" stroke-linejoin="round" stroke-width="2"/>
    <line id="Line_121" data-name="Line 121" x2="12.531" transform="translate(1498.46 -5642.267)" fill="none" stroke="#fefefe" stroke-linecap="round" stroke-linejoin="round" stroke-width="2"/>
  </g>
</svg>
