<svg id="efect" xmlns="http://www.w3.org/2000/svg" width="138.283" height="87.366" viewBox="0 0 138.283 87.366">
  <g id="Group_66" data-name="Group 66" transform="translate(0)">
    <ellipse id="Ellipse_31" data-name="Ellipse 31" cx="5.369" cy="5.369" rx="5.369" ry="5.369" fill="#c7004a"/>
    <ellipse id="Ellipse_32" data-name="Ellipse 32" cx="5.369" cy="5.369" rx="5.369" ry="5.369" transform="translate(31.886 0)" fill="#c7004a"/>
    <ellipse id="Ellipse_33" data-name="Ellipse 33" cx="5.369" cy="5.369" rx="5.369" ry="5.369" transform="translate(63.773 0)" fill="#c7004a"/>
    <ellipse id="Ellipse_34" data-name="Ellipse 34" cx="5.369" cy="5.369" rx="5.369" ry="5.369" transform="translate(95.659 0)" fill="#c7004a"/>
    <ellipse id="Ellipse_35" data-name="Ellipse 35" cx="5.369" cy="5.369" rx="5.369" ry="5.369" transform="translate(127.545 0)" fill="#c7004a"/>
  </g>
  <g id="Group_67" data-name="Group 67" transform="translate(0 51.084)">
    <ellipse id="Ellipse_31-2" data-name="Ellipse 31" cx="5.369" cy="5.369" rx="5.369" ry="5.369" fill="#c7004a"/>
    <ellipse id="Ellipse_32-2" data-name="Ellipse 32" cx="5.369" cy="5.369" rx="5.369" ry="5.369" transform="translate(31.886 0.001)" fill="#c7004a"/>
    <ellipse id="Ellipse_33-2" data-name="Ellipse 33" cx="5.369" cy="5.369" rx="5.369" ry="5.369" transform="translate(63.773 0.001)" fill="#c7004a"/>
    <ellipse id="Ellipse_34-2" data-name="Ellipse 34" cx="5.369" cy="5.369" rx="5.369" ry="5.369" transform="translate(95.659 0.001)" fill="#c7004a"/>
    <ellipse id="Ellipse_35-2" data-name="Ellipse 35" cx="5.369" cy="5.369" rx="5.369" ry="5.369" transform="translate(127.545 0.001)" fill="#c7004a"/>
  </g>
  <g id="Group_68" data-name="Group 68" transform="translate(0 25.543)">
    <ellipse id="Ellipse_31-3" data-name="Ellipse 31" cx="5.369" cy="5.369" rx="5.369" ry="5.369" transform="translate(0 0)" fill="#c7004a"/>
    <ellipse id="Ellipse_32-3" data-name="Ellipse 32" cx="5.369" cy="5.369" rx="5.369" ry="5.369" transform="translate(31.886)" fill="#c7004a"/>
    <ellipse id="Ellipse_33-3" data-name="Ellipse 33" cx="5.369" cy="5.369" rx="5.369" ry="5.369" transform="translate(63.773)" fill="#c7004a"/>
    <ellipse id="Ellipse_34-3" data-name="Ellipse 34" cx="5.369" cy="5.369" rx="5.369" ry="5.369" transform="translate(95.659)" fill="#c7004a"/>
    <ellipse id="Ellipse_35-3" data-name="Ellipse 35" cx="5.369" cy="5.369" rx="5.369" ry="5.369" transform="translate(127.545)" fill="#c7004a"/>
  </g>
  <g id="Group_69" data-name="Group 69" transform="translate(0 76.628)">
    <ellipse id="Ellipse_31-4" data-name="Ellipse 31" cx="5.369" cy="5.369" rx="5.369" ry="5.369" transform="translate(0 0)" fill="#c7004a"/>
    <ellipse id="Ellipse_32-4" data-name="Ellipse 32" cx="5.369" cy="5.369" rx="5.369" ry="5.369" transform="translate(31.886)" fill="#c7004a"/>
    <ellipse id="Ellipse_33-4" data-name="Ellipse 33" cx="5.369" cy="5.369" rx="5.369" ry="5.369" transform="translate(63.773)" fill="#c7004a"/>
    <ellipse id="Ellipse_34-4" data-name="Ellipse 34" cx="5.369" cy="5.369" rx="5.369" ry="5.369" transform="translate(95.659)" fill="#c7004a"/>
    <ellipse id="Ellipse_35-4" data-name="Ellipse 35" cx="5.369" cy="5.369" rx="5.369" ry="5.369" transform="translate(127.545)" fill="#c7004a"/>
  </g>
</svg>
