<svg xmlns="http://www.w3.org/2000/svg" width="103.765" height="65.557" viewBox="0 0 103.765 65.557">
  <g id="Group_116" data-name="Group 116" transform="translate(-1336.235 -7233.431)">
    <g id="Group_66" data-name="Group 66">
      <circle id="Ellipse_31" data-name="Ellipse 31" cx="4.029" cy="4.029" r="4.029" transform="translate(1336.235 7233.431)" fill="#fff"/>
      <circle id="Ellipse_32" data-name="Ellipse 32" cx="4.029" cy="4.029" r="4.029" transform="translate(1360.162 7233.431)" fill="#fff"/>
      <circle id="Ellipse_33" data-name="Ellipse 33" cx="4.029" cy="4.029" r="4.029" transform="translate(1384.089 7233.431)" fill="#fff"/>
      <circle id="Ellipse_34" data-name="Ellipse 34" cx="4.029" cy="4.029" r="4.029" transform="translate(1408.016 7233.431)" fill="#fff"/>
      <circle id="Ellipse_35" data-name="Ellipse 35" cx="4.029" cy="4.029" r="4.029" transform="translate(1431.943 7233.431)" fill="#fff"/>
    </g>
    <g id="Group_67" data-name="Group 67">
      <circle id="Ellipse_31-2" data-name="Ellipse 31" cx="4.029" cy="4.029" r="4.029" transform="translate(1336.235 7271.764)" fill="#fff"/>
      <circle id="Ellipse_32-2" data-name="Ellipse 32" cx="4.029" cy="4.029" r="4.029" transform="translate(1360.162 7271.764)" fill="#fff"/>
      <circle id="Ellipse_33-2" data-name="Ellipse 33" cx="4.029" cy="4.029" r="4.029" transform="translate(1384.089 7271.764)" fill="#fff"/>
      <circle id="Ellipse_34-2" data-name="Ellipse 34" cx="4.029" cy="4.029" r="4.029" transform="translate(1408.016 7271.764)" fill="#fff"/>
      <circle id="Ellipse_35-2" data-name="Ellipse 35" cx="4.029" cy="4.029" r="4.029" transform="translate(1431.943 7271.764)" fill="#fff"/>
    </g>
    <g id="Group_68" data-name="Group 68">
      <circle id="Ellipse_31-3" data-name="Ellipse 31" cx="4.029" cy="4.029" r="4.029" transform="translate(1336.235 7252.598)" fill="#fff"/>
      <circle id="Ellipse_32-3" data-name="Ellipse 32" cx="4.029" cy="4.029" r="4.029" transform="translate(1360.162 7252.598)" fill="#fff"/>
      <circle id="Ellipse_33-3" data-name="Ellipse 33" cx="4.029" cy="4.029" r="4.029" transform="translate(1384.089 7252.598)" fill="#fff"/>
      <circle id="Ellipse_34-3" data-name="Ellipse 34" cx="4.029" cy="4.029" r="4.029" transform="translate(1408.016 7252.598)" fill="#fff"/>
      <circle id="Ellipse_35-3" data-name="Ellipse 35" cx="4.029" cy="4.029" r="4.029" transform="translate(1431.943 7252.598)" fill="#fff"/>
    </g>
    <g id="Group_69" data-name="Group 69">
      <circle id="Ellipse_31-4" data-name="Ellipse 31" cx="4.029" cy="4.029" r="4.029" transform="translate(1336.235 7290.931)" fill="#fff"/>
      <circle id="Ellipse_32-4" data-name="Ellipse 32" cx="4.029" cy="4.029" r="4.029" transform="translate(1360.162 7290.931)" fill="#fff"/>
      <circle id="Ellipse_33-4" data-name="Ellipse 33" cx="4.029" cy="4.029" r="4.029" transform="translate(1384.089 7290.931)" fill="#fff"/>
      <circle id="Ellipse_34-4" data-name="Ellipse 34" cx="4.029" cy="4.029" r="4.029" transform="translate(1408.016 7290.931)" fill="#fff"/>
      <circle id="Ellipse_35-4" data-name="Ellipse 35" cx="4.029" cy="4.029" r="4.029" transform="translate(1431.943 7290.931)" fill="#fff"/>
    </g>
  </g>
</svg>
