<svg xmlns="http://www.w3.org/2000/svg" width="103.765" height="65.558" viewBox="0 0 103.765 65.558">
  <g id="Group_74" data-name="Group 74" transform="translate(-8.073 -6880.952)">
    <g id="Group_66" data-name="Group 66">
      <circle id="Ellipse_31" data-name="Ellipse 31" cx="4.029" cy="4.029" r="4.029" transform="translate(8.073 6880.952)" fill="#508ff4"/>
      <circle id="Ellipse_32" data-name="Ellipse 32" cx="4.029" cy="4.029" r="4.029" transform="translate(32 6880.952)" fill="#508ff4"/>
      <circle id="Ellipse_33" data-name="Ellipse 33" cx="4.029" cy="4.029" r="4.029" transform="translate(55.927 6880.952)" fill="#508ff4"/>
      <circle id="Ellipse_34" data-name="Ellipse 34" cx="4.029" cy="4.029" r="4.029" transform="translate(79.854 6880.952)" fill="#508ff4"/>
      <circle id="Ellipse_35" data-name="Ellipse 35" cx="4.029" cy="4.029" r="4.029" transform="translate(103.78 6880.952)" fill="#508ff4"/>
    </g>
    <g id="Group_67" data-name="Group 67">
      <circle id="Ellipse_31-2" data-name="Ellipse 31" cx="4.029" cy="4.029" r="4.029" transform="translate(8.073 6919.285)" fill="#508ff4"/>
      <circle id="Ellipse_32-2" data-name="Ellipse 32" cx="4.029" cy="4.029" r="4.029" transform="translate(32 6919.285)" fill="#508ff4"/>
      <circle id="Ellipse_33-2" data-name="Ellipse 33" cx="4.029" cy="4.029" r="4.029" transform="translate(55.927 6919.285)" fill="#508ff4"/>
      <circle id="Ellipse_34-2" data-name="Ellipse 34" cx="4.029" cy="4.029" r="4.029" transform="translate(79.854 6919.285)" fill="#508ff4"/>
      <circle id="Ellipse_35-2" data-name="Ellipse 35" cx="4.029" cy="4.029" r="4.029" transform="translate(103.78 6919.285)" fill="#508ff4"/>
    </g>
    <g id="Group_68" data-name="Group 68">
      <circle id="Ellipse_31-3" data-name="Ellipse 31" cx="4.029" cy="4.029" r="4.029" transform="translate(8.073 6900.119)" fill="#508ff4"/>
      <circle id="Ellipse_32-3" data-name="Ellipse 32" cx="4.029" cy="4.029" r="4.029" transform="translate(32 6900.119)" fill="#508ff4"/>
      <circle id="Ellipse_33-3" data-name="Ellipse 33" cx="4.029" cy="4.029" r="4.029" transform="translate(55.927 6900.119)" fill="#508ff4"/>
      <circle id="Ellipse_34-3" data-name="Ellipse 34" cx="4.029" cy="4.029" r="4.029" transform="translate(79.854 6900.119)" fill="#508ff4"/>
      <circle id="Ellipse_35-3" data-name="Ellipse 35" cx="4.029" cy="4.029" r="4.029" transform="translate(103.78 6900.119)" fill="#508ff4"/>
    </g>
    <g id="Group_69" data-name="Group 69">
      <circle id="Ellipse_31-4" data-name="Ellipse 31" cx="4.029" cy="4.029" r="4.029" transform="translate(8.073 6938.452)" fill="#508ff4"/>
      <circle id="Ellipse_32-4" data-name="Ellipse 32" cx="4.029" cy="4.029" r="4.029" transform="translate(32 6938.452)" fill="#508ff4"/>
      <circle id="Ellipse_33-4" data-name="Ellipse 33" cx="4.029" cy="4.029" r="4.029" transform="translate(55.927 6938.452)" fill="#508ff4"/>
      <circle id="Ellipse_34-4" data-name="Ellipse 34" cx="4.029" cy="4.029" r="4.029" transform="translate(79.854 6938.452)" fill="#508ff4"/>
      <circle id="Ellipse_35-4" data-name="Ellipse 35" cx="4.029" cy="4.029" r="4.029" transform="translate(103.78 6938.452)" fill="#508ff4"/>
    </g>
  </g>
</svg>
