<svg xmlns="http://www.w3.org/2000/svg" width="16.745" height="17.725" viewBox="0 0 16.745 17.725">
  <path id="Vector" d="M16.088,14.465a8.41,8.41,0,0,0-4.456-4.456L11.606,10a5.521,5.521,0,1,0-6.466,0l-.027.011A8.369,8.369,0,0,0,0,17.542a.178.178,0,0,0,.178.183H1.514a.178.178,0,0,0,.178-.174A6.682,6.682,0,0,1,13.1,13a6.639,6.639,0,0,1,1.955,4.549.176.176,0,0,0,.178.174h1.336a.178.178,0,0,0,.178-.183,8.3,8.3,0,0,0-.657-3.077ZM8.373,9.352A3.832,3.832,0,1,1,11.08,8.23,3.805,3.805,0,0,1,8.373,9.352Z" fill="#03014c" opacity="0.5"/>
</svg>
