<?xml version="1.0" encoding="utf-8"?>
<!-- Generator: Adobe Illustrator 24.1.2, SVG Export Plug-In . SVG Version: 6.00 Build 0)  -->
<svg version="1.1" id="Layer_1" xmlns="http://www.w3.org/2000/svg" xmlns:xlink="http://www.w3.org/1999/xlink" x="0px" y="0px"
	 viewBox="0 0 855.8 250" style="enable-background:new 0 0 855.8 250;" xml:space="preserve">
<style type="text/css">
	.st0{fill:#3954A5;}
	.st1{fill:#C71F4D;}
</style>
<g>
	<path class="st0" d="M134.8,192.3c-30.5,5.8-49.4-14.1-53.3-33c-0.7-3.1-0.6-6.4-0.8-9.6c-0.1-1.2,0.2-2.4,1.8-2.7
		c1.8-0.3,2.7,0.9,2.9,2.3c0.4,3,0.3,6.1,1,9c5.1,21.9,26.9,34.7,48.5,28.7c0.6-0.2,1.2-0.2,1.7-0.5c1.6-0.8,3.1-1.1,4.2,0.7
		c1.5,2.4-0.7,3.1-2.1,4c-0.7,0.2-1.5,0.5-2.2,0.7C135.9,192,135.3,192.2,134.8,192.3C134.8,192.3,134.8,192.3,134.8,192.3z"/>
	<path class="st1" d="M177.1,205.3c-7.9-7.9-15.8-15.7-23.7-23.6c2.8-1.9,5.2-5.5,5.2-5.5l0,0c12.8-16.6,12-40.2-2.6-55.8
		c-10.6-11.3-21.6-22.2-32.4-33.3c-4.9-5-9.8-10.1-14.7-15.1c-1.2-1.3-2.7-2-4.2-0.6c-1.7,1.6-0.4,2.9,0.7,4.1
		c1.1,1.2,2.2,2.3,3.4,3.5c14.3,14.7,28.7,29.3,42.9,44.1c13.5,14.1,14.6,34.7,3,50.2c-2.7,3.6-4.3,4.8-8.1,0.8
		c-16.5-17.3-33.7-34-50.2-51.4c-9.8-10.3-12.7-23.1-9.1-36.9c4.8-18.4,22.8-30.3,42.4-28c15.9,1.8,32.6,15.7,33.1,36.3
		c0.1,2-0.3,4.7,2.4,4.6c2.7-0.1,3.2-2.8,2.6-5.1c-1.7-6.5-2.2-13.4-5.7-19.4c-12.4-21-38.7-27.8-59.7-15.3
		c-3.7,2.2-5.6,2.2-8.6-1.6c-5.6-6.8-12.2-12.7-18.5-18.9c-1.3-1.3-3-2.3-4.6-0.6c-1.8,2,0.6,2.8,1.5,3.8c6.3,6.8,12.6,13.5,19.2,20
		c2.2,2.2,2.7,3.4,0.4,6.2c-15.6,18.7-14.3,42.8,2.9,60.3c19.3,19.7,38.4,39.4,57.6,59.2c6.7,6.9,13.4,13.9,20.2,20.8
		c1.3,1.3,2.6,2.8,4.6,1.2C178.6,207.9,178.2,206.3,177.1,205.3z"/>
</g>
<g>
	<path class="st1" d="M200.9,158.2c-3.4-1.4-6.1-3.5-8.2-6.2c-2-2.7-3.1-6-3.2-9.9h15.2c0.2,2.2,1,3.8,2.3,5c1.3,1.1,3,1.7,5,1.7
		c2.1,0,3.8-0.5,5-1.5c1.2-1,1.8-2.3,1.8-4.1c0-1.5-0.5-2.7-1.5-3.6c-1-0.9-2.2-1.7-3.6-2.3c-1.4-0.6-3.4-1.3-6.1-2.1
		c-3.8-1.2-6.9-2.3-9.3-3.5c-2.4-1.2-4.5-2.9-6.2-5.2c-1.7-2.3-2.6-5.3-2.6-9c0-5.5,2-9.8,5.9-12.9c4-3.1,9.1-4.6,15.5-4.6
		c6.5,0,11.7,1.5,15.7,4.6c4,3.1,6.1,7.4,6.4,12.9h-15.5c-0.1-1.9-0.8-3.4-2.1-4.5c-1.3-1.1-2.9-1.6-4.9-1.6c-1.7,0-3.1,0.5-4.2,1.4
		c-1.1,0.9-1.6,2.2-1.6,4c0,1.9,0.9,3.4,2.7,4.4c1.8,1.1,4.6,2.2,8.4,3.4c3.8,1.3,6.9,2.5,9.3,3.7c2.4,1.2,4.4,2.9,6.2,5.1
		c1.7,2.2,2.6,5.1,2.6,8.6c0,3.4-0.9,6.4-2.6,9.1c-1.7,2.7-4.2,4.9-7.4,6.5c-3.2,1.6-7.1,2.4-11.5,2.4
		C208.2,160.3,204.3,159.6,200.9,158.2z"/>
	<path class="st1" d="M288.8,113v46.7h-14.3v-6.4c-1.5,2.1-3.4,3.7-5.9,5c-2.5,1.3-5.2,1.9-8.3,1.9c-3.6,0-6.7-0.8-9.5-2.4
		c-2.7-1.6-4.9-3.9-6.4-6.9c-1.5-3-2.3-6.6-2.3-10.6V113h14.2v25.4c0,3.1,0.8,5.6,2.4,7.3c1.6,1.7,3.8,2.6,6.5,2.6
		c2.8,0,5-0.9,6.6-2.6c1.6-1.7,2.4-4.2,2.4-7.3V113H288.8z"/>
	<path class="st1" d="M372.6,117.8c3.4,3.5,5.2,8.4,5.2,14.7v27.3h-14.2v-25.4c0-3-0.8-5.3-2.4-7c-1.6-1.6-3.8-2.5-6.6-2.5
		c-2.8,0-5,0.8-6.6,2.5c-1.6,1.6-2.4,4-2.4,7v25.4h-14.2v-25.4c0-3-0.8-5.3-2.4-7c-1.6-1.6-3.8-2.5-6.6-2.5c-2.8,0-5,0.8-6.6,2.5
		c-1.6,1.6-2.4,4-2.4,7v25.4h-14.3V113h14.3v5.9c1.5-2,3.4-3.5,5.7-4.6c2.3-1.1,5-1.7,8-1.7c3.5,0,6.7,0.8,9.4,2.3s4.9,3.7,6.5,6.4
		c1.6-2.6,3.8-4.7,6.6-6.3c2.8-1.6,5.8-2.4,9.1-2.4C364.6,112.5,369.2,114.3,372.6,117.8z"/>
	<path class="st1" d="M461.4,117.8c3.4,3.5,5.2,8.4,5.2,14.7v27.3h-14.2v-25.4c0-3-0.8-5.3-2.4-7c-1.6-1.6-3.8-2.5-6.6-2.5
		c-2.8,0-5,0.8-6.6,2.5c-1.6,1.6-2.4,4-2.4,7v25.4h-14.2v-25.4c0-3-0.8-5.3-2.4-7c-1.6-1.6-3.8-2.5-6.6-2.5c-2.8,0-5,0.8-6.6,2.5
		c-1.6,1.6-2.4,4-2.4,7v25.4h-14.3V113h14.3v5.9c1.5-2,3.4-3.5,5.7-4.6c2.3-1.1,5-1.7,8-1.7c3.5,0,6.7,0.8,9.4,2.3s4.9,3.7,6.5,6.4
		c1.6-2.6,3.8-4.7,6.6-6.3c2.8-1.6,5.8-2.4,9.1-2.4C453.3,112.5,457.9,114.3,461.4,117.8z"/>
	<path class="st1" d="M520.4,139.8h-32.4c0.2,2.9,1.2,5.1,2.8,6.7c1.6,1.5,3.7,2.3,6.1,2.3c3.6,0,6.1-1.5,7.5-4.5h15.2
		c-0.8,3.1-2.2,5.8-4.2,8.3c-2,2.5-4.6,4.4-7.7,5.8c-3.1,1.4-6.5,2.1-10.3,2.1c-4.6,0-8.7-1-12.2-2.9c-3.6-2-6.4-4.7-8.4-8.4
		c-2-3.6-3-7.9-3-12.7c0-4.9,1-9.1,3-12.7c2-3.6,4.8-6.4,8.3-8.4c3.6-2,7.7-2.9,12.3-2.9c4.5,0,8.5,1,12.1,2.8
		c3.5,1.9,6.3,4.6,8.3,8.1c2,3.5,3,7.6,3,12.3C520.6,137,520.5,138.4,520.4,139.8z M506,131.9c0-2.5-0.8-4.4-2.5-5.9
		c-1.7-1.5-3.8-2.2-6.3-2.2c-2.4,0-4.4,0.7-6.1,2.1c-1.6,1.4-2.7,3.4-3.1,5.9H506z"/>
	<path class="st1" d="M548.8,114.7c2.5-1.5,5.3-2.2,8.4-2.2v15.2h-3.9c-3.6,0-6.3,0.8-8,2.3c-1.8,1.5-2.7,4.2-2.7,8.1v21.7h-14.3
		V113h14.3v7.8C544.1,118.2,546.2,116.2,548.8,114.7z"/>
</g>
<g>
	<path class="st0" d="M576.1,156.6c-3-1.4-5.4-3.3-7.2-5.7c-1.7-2.4-2.6-5.2-2.7-8.4h8.1c0.3,2.7,1.4,5,3.4,6.9
		c2,1.9,4.9,2.8,8.7,2.8c3.6,0,6.5-0.9,8.6-2.7c2.1-1.8,3.1-4.1,3.1-7c0-2.2-0.6-4-1.8-5.4c-1.2-1.4-2.8-2.5-4.6-3.2
		c-1.8-0.7-4.3-1.5-7.5-2.3c-3.9-1-6.9-2-9.3-3c-2.3-1-4.3-2.6-5.9-4.7c-1.6-2.1-2.5-5-2.5-8.7c0-3.2,0.8-6,2.4-8.5
		c1.6-2.5,3.9-4.4,6.8-5.7c2.9-1.3,6.3-2,10.1-2c5.5,0,10,1.4,13.4,4.1c3.5,2.7,5.5,6.4,5.9,10.9h-8.4c-0.3-2.2-1.5-4.2-3.5-5.9
		c-2.1-1.7-4.8-2.6-8.2-2.6c-3.2,0-5.8,0.8-7.8,2.5c-2,1.6-3,4-3,6.9c0,2.1,0.6,3.9,1.8,5.2c1.2,1.3,2.7,2.4,4.4,3.1
		c1.8,0.7,4.2,1.5,7.4,2.4c3.9,1.1,7,2.1,9.3,3.1c2.3,1,4.4,2.6,6,4.8c1.7,2.2,2.5,5.1,2.5,8.8c0,2.8-0.8,5.5-2.3,8
		c-1.5,2.5-3.7,4.6-6.7,6.1c-3,1.6-6.5,2.3-10.5,2.3C582.6,158.7,579.2,158,576.1,156.6z"/>
	<path class="st0" d="M626.4,118.5v27.1c0,2.2,0.5,3.8,1.4,4.7c0.9,0.9,2.6,1.4,4.9,1.4h5.6v6.4h-6.9c-4.2,0-7.4-1-9.5-2.9
		c-2.1-2-3.2-5.2-3.2-9.6v-27.1h-5.9v-6.3h5.9v-11.6h7.6v11.6h12v6.3H626.4z"/>
	<path class="st0" d="M661,113.5c2.5-1.5,5.5-2.2,9.1-2.2v7.9h-2c-8.5,0-12.8,4.6-12.8,13.9v25h-7.6v-45.9h7.6v7.5
		C656.6,117,658.5,115,661,113.5z"/>
	<path class="st0" d="M720.5,138h-36.7c0.3,4.5,1.8,8.1,4.6,10.6c2.8,2.5,6.2,3.8,10.3,3.8c3.3,0,6-0.8,8.3-2.3
		c2.2-1.5,3.8-3.6,4.6-6.2h8.2c-1.2,4.4-3.7,8-7.4,10.8c-3.7,2.8-8.3,4.1-13.7,4.1c-4.4,0-8.3-1-11.7-2.9c-3.4-2-6.1-4.7-8.1-8.3
		c-2-3.6-2.9-7.8-2.9-12.5c0-4.7,0.9-8.9,2.8-12.5c1.9-3.6,4.6-6.3,8-8.3c3.4-1.9,7.4-2.9,11.9-2.9c4.4,0,8.2,1,11.6,2.8
		c3.4,1.9,5.9,4.5,7.7,7.8c1.8,3.3,2.7,7.1,2.7,11.3C720.7,134.8,720.7,136.3,720.5,138z M710.9,124.3c-1.3-2.1-3-3.7-5.2-4.8
		c-2.2-1.1-4.6-1.6-7.3-1.6c-3.9,0-7.1,1.2-9.8,3.7c-2.7,2.5-4.3,5.9-4.6,10.2h29C712.9,128.9,712.2,126.4,710.9,124.3z"/>
	<path class="st0" d="M772.4,138h-36.7c0.3,4.5,1.8,8.1,4.6,10.6c2.8,2.5,6.2,3.8,10.3,3.8c3.3,0,6-0.8,8.3-2.3
		c2.2-1.5,3.8-3.6,4.6-6.2h8.2c-1.2,4.4-3.7,8-7.4,10.8c-3.7,2.8-8.3,4.1-13.7,4.1c-4.4,0-8.3-1-11.7-2.9c-3.4-2-6.1-4.7-8.1-8.3
		c-2-3.6-2.9-7.8-2.9-12.5c0-4.7,0.9-8.9,2.8-12.5c1.9-3.6,4.6-6.3,8-8.3c3.4-1.9,7.4-2.9,11.9-2.9c4.4,0,8.2,1,11.6,2.8
		c3.4,1.9,5.9,4.5,7.7,7.8c1.8,3.3,2.7,7.1,2.7,11.3C772.7,134.8,772.6,136.3,772.4,138z M762.9,124.3c-1.3-2.1-3-3.7-5.2-4.8
		c-2.2-1.1-4.6-1.6-7.3-1.6c-3.9,0-7.1,1.2-9.8,3.7c-2.7,2.5-4.3,5.9-4.6,10.2h29C764.8,128.9,764.2,126.4,762.9,124.3z"/>
	<path class="st0" d="M792,118.5v27.1c0,2.2,0.5,3.8,1.4,4.7c0.9,0.9,2.6,1.4,4.9,1.4h5.6v6.4h-6.9c-4.2,0-7.4-1-9.5-2.9
		c-2.1-2-3.2-5.2-3.2-9.6v-27.1h-5.9v-6.3h5.9v-11.6h7.6v11.6h12v6.3H792z"/>
</g>
</svg>
